<?xml version="1.0" encoding="UTF-8"?>
<!DOCTYPE svg PUBLIC "-//W3C//DTD SVG 1.1//EN" "http://www.w3.org/Graphics/SVG/1.1/DTD/svg11.dtd">
<svg width="512px" height="512px" version="1.1" xmlns="http://www.w3.org/2000/svg">
<path d="M 256,0 C 114.6,0 0,114.6 0,256 0,397.4 114.6,512 256,512 c 141.4,0 256,-114.6 256,-256 C 512,114.6 397.4,0 256,0 z m 1.2,43.5 c 117.4,0 212.6,95.2 212.6,212.6 0,117.4 -95.2,212.6 -212.6,212.6 -117.4,0 -212.6,-95.2 -212.6,-212.6 0,-117.4 95.2,-212.6 212.6,-212.6 z" fill="#8dd4df"/>
<path d="m 289.9,2.3 -7.8,42.7 c 105.7,12.3 187.7,102 187.7,210.9 0,108.5 -81.4,198 -186.6,210.8 l 5.9,42.8 C 414.9,493.2 512,385.8 512,256 512,126 415.2,18.9 289.9,2.3 z M 221.3,2.4 C 96.3,19.4 0,126.3 0,256 0,386.8 98.6,494.8 225.7,509.8 l 6.2,-43 C 126.4,454.3 44.7,364.6 44.7,256 44.7,147.8 125.5,58.5 230.1,45.2 L 221.3,2.4 z m 52,147.1 -124.6,0 0,213.3 48.8,0 0,-87.8 75.9,0 0,-33.7 -74.1,0 0,-50 82.5,0 z m 18.1,-0.6 0,183.7 m 0,-183.7 0,183.7 c 0.2,20.1 14.2,31 34.9,30.8 l 45.2,0 9,-33.7 -41.5,0 0,-181.3 z" fill="#24afc4"/>
</svg>